<?xml version="1.0" encoding="utf-8"?>
<!-- Generator: Adobe Illustrator 23.1.0, SVG Export Plug-In . SVG Version: 6.00 Build 0)  -->
<svg version="1.1" id="Слой_1_xA0_Изображение_1_"
	 xmlns="http://www.w3.org/2000/svg" xmlns:xlink="http://www.w3.org/1999/xlink" x="0px" y="0px" viewBox="0 0 1198 950"
	 style="enable-background:new 0 0 1198 950;" xml:space="preserve">
<style type="text/css">
	.st0{fill:#FEFEFE;}
	.st1{fill:#CECECE;}
	.st2{fill:#E7E7E7;}
	.st3{fill:#E4E4E4;}
	.st4{fill:#0F0F0F;}
	.st5{fill:#2D2D2D;}
	.st6{fill:#A4A4A4;}
	.st7{fill:#5C5C5C;}
	.st8{fill:#595959;}
	.st9{fill:#B2B2B2;}
	.st10{fill:#6D6D6D;}
	.st11{fill:#404040;}
	.st12{fill:#C7C7C7;}
	.st13{fill:#717171;}
	.st14{fill:#4C4C4C;}
	.st15{fill:#A5A5A5;}
	.st16{fill:#989898;}
	.st17{fill:#4E4E4E;}
	.st18{fill:#3D3D3D;}
	.st19{fill:#CDCDCD;}
	.st20{fill:#535353;}
	.st21{fill:#8B8B8B;}
	.st22{fill:#727272;}
	.st23{fill:#101010;}
	.st24{fill:#959595;}
	.st25{fill:#D8D8D8;}
	.st26{fill:#626262;}
</style>
<g>
	<g>
		<path class="st0" d="M515.04,949.91c-169.93,0-339.86-0.01-509.79,0.09C1.32,950,0,949.56,0,945.02
			C0.15,631.66,0.14,318.3,0.03,4.94C0.03,1.04,0.6,0,4.81,0c265.72,0.13,531.45,0.12,797.17,0.12c0.34,0.51,0.28,0.97-0.17,1.38
			c-0.84,0.6-1.83,0.8-2.83,0.88c-18.74,1.47-34.2,10.27-48.52,21.64c-8.48,6.73-16.49,14.02-24.77,20.99
			c-1.78,1.5-3.66,2.86-6.62,4.69c4.82-0.41,7.67-2.55,10.44-4.68c9.76-7.52,19.42-15.17,29.45-22.35
			c19.42-13.9,40.73-17.2,63.63-11.71c6.18,1.48,11.87,4.4,17.49,7.28c26.56,13.62,53.43,26.54,82.05,35.3
			c15.94,4.88,32.22,8.16,48.93,9.4c7.64,0.57,15.28,0.66,22.91,1.16c4,0.21,8-0.28,11.99-0.47c-2.99-0.04-5.99,0.73-8.99,0.46
			c-16.1,0.36-31.21-4.46-46.26-9.22c-33.83-10.69-66.77-23.62-98.52-39.55c-10.38-5.21-20.93-10.27-32.64-12.06
			c-1.32-0.2-2.57-0.7-3.54-1.7c-0.38-0.47-0.41-0.96-0.07-1.46c125.81,0,251.62,0.02,377.43-0.09c3.75,0,4.59,0.85,4.59,4.59
			c-0.1,313.6-0.1,627.19,0,940.79c0,3.75-0.84,4.59-4.59,4.59c-224.46-0.1-448.91-0.09-673.37-0.09c-0.37-0.45-0.55-0.98-0.55-1.56
			c1.47-3.66,0.75-6.4-3.07-8.16c-16.94-7.84-33.76-16.42-52.58-18.33c-19.58-1.98-39.19-1.1-58.55,3.3
			c-12.03,2.74-24.28,3.99-36.64,4.21c-7.56,0.13-14.59-1.54-20.87-5.71c-15.16-10.05-32.04-13.14-49.88-13.41
			c-17.85-0.27-35.06,2.9-52.22,7.35c-17.22,4.47-34.38,9.4-52.16,11.31c-2.45,0.04-4.92-0.13-7.34,0.52
			c2.42-0.8,4.92-0.42,7.4-0.51c26.48-0.96,52.7-3.92,78.78-8.7c13.92-2.56,28.18-2.38,42.25-0.43c9.32,1.29,18.08,4.48,25.94,9.83
			c12.55,8.53,26.44,10.16,41.12,8.24c12.07-1.58,23.91-4.32,35.84-6.62c16.31-3.15,32.71-3.65,49.18-1.49
			c12.75,1.67,24.18,7.28,35.75,12.35c4.36,1.91,9.36,2.56,12.91,6.17C515.53,948.86,515.43,949.41,515.04,949.91z"/>
		<path class="st1" d="M801.94,0.95c0-0.28,0.02-0.55,0.04-0.83c2.67,0,5.33,0,8,0c0.31,0.63,0.17,1.14-0.41,1.54
			C806.91,2.69,804.3,3.18,801.94,0.95z"/>
		<path class="st2" d="M810,0.96c-0.01-0.28-0.02-0.56-0.02-0.84c2,0,4,0,6,0c0,0.31,0,0.63,0.01,0.94
			C813.96,2.75,811.97,2.81,810,0.96z"/>
		<path class="st3" d="M519.94,948.69c0.03,0.41,0.07,0.81,0.1,1.22c-1.67,0-3.33,0-5,0c0.01-0.36,0.02-0.71,0.03-1.07
			C516.65,947.47,518.28,947.53,519.94,948.69z"/>
		<path class="st4" d="M930.96,574.99c-9.36,2.51-19.01,3.16-28.58,3.95c-17.75,1.46-35.54,2.42-53.39,2.07
			c-33.56-0.66-65.01-7.85-92.12-28.99c-3.15-2.45-6.58-4.54-9.86-6.81c-2.34-1.62-4.58-3.51-7.49-0.96
			c-1.57,1.37-2.52,0.09-3.02-1.13c-3.41-8.31-11.21-10.82-18.48-13.84c-19.42-8.06-39.59-12.21-60.74-12.35
			c-22.03-0.14-43.89,0.45-65.37,6.08c-18.41,4.83-36.04,11.67-53.12,20c-1,0.49-2.17,1.19-2.65,2.12
			c-1.78,3.44-4.85,5.13-8.29,5.89c-9.66,2.13-18.54,6.35-27.69,9.86c-7.12,2.73-14.46,3.83-22.06,3.09
			c-1.3-0.13-3.23-0.03-3.25-1.6c-0.03-2.33,2.16-1.51,3.47-1.47c6.72,0.19,13.04-1.16,18.9-4.97c-6.9,0-13.8-0.05-20.7,0.01
			c-44.45,0.37-87.96-6.26-130.66-18.22c-16.24-4.55-31.69-11.19-44.56-22.71c-5.9-5.29-10.47-11.5-14.94-17.98
			c-2.44-3.54-6.1-6.26-7.63-10.54c-1.05-2.94-1.36-7.09-3.46-8.44c-2.13-1.37-6.07,0.34-9.18,0.15
			c-14.56-0.88-28.09,3.13-41.74,7.6c-33.54,11-64.68,26.41-92.24,48.61c-14.82,11.93-26.52,26.64-36.35,42.84
			c-3.5,5.77-4.82,12.24-5.86,18.91c-4.04,25.81,3.56,48.56,18.45,69.06c15.06,20.73,31.98,39.77,55.5,51.49
			c18.77,9.35,39.03,13.23,59.65,15.2c24.57,2.35,49.27,3.17,73.86,1.01c25.52-2.24,51.12-4.61,76.16-10.15
			c19.51-4.31,35.59-14.52,46.03-32.39c4.43-7.59,6.34-15.65,6.44-24.28c0.05-3.94-1.01-7.55-3.22-10.83
			c-5.8-8.6-13.49-14.98-22.46-20.15c-26.45-15.27-55.34-24.37-84.04-34.03c-10.24-3.45-20.29-7.48-30.38-11.34
			c-2.48-0.95-4.87-2.16-7.18-3.47c-7.14-4.06-8.16-7.15-5.11-14.71c0.93-2.31,1.71-4.7,3.54-6.52c2.34,0.37,1.25,1.95,1.13,3.19
			c0.69,6.68,5.86,8.84,11.09,10.75c16.56,6.06,33.02,12.4,49.76,17.91c24.12,7.95,47.27,17.93,69.09,30.95
			c5.04,3,9.4,6.82,13.81,10.65c18.08,15.68,16.27,37.91,8.66,53.4c-11.84,24.09-32.36,36.88-57.59,43.06
			c-15.22,3.73-30.95,4.46-46.37,6.97c-30.44,4.95-61.08,4.63-91.7,3.82c-25.46-0.67-50.33-4.97-73.74-15.68
			c-11.13-5.09-21.38-11.47-30.33-19.92c-17.78-16.76-34.07-34.58-45.03-56.84c-10.73-21.78-11.95-44.39-7.47-67.69
			c1.4-7.26,4.79-13.8,8.78-20.01c16.08-25,37.62-44.08,62.7-59.85c29.1-18.3,60.77-29.24,94.26-35.27
			c8.79-1.58,17.25-5.29,26.43-4.62c2.63,0.19,2.03-1.54,1.64-2.95c-1.69-6.26-3.35-12.54-5.19-18.76
			c-7.31-24.67-7.57-49.15,1.83-73.37c21.97-56.57,59.96-99.57,111.23-131.39c36.04-22.37,75.19-34.84,117.41-38.66
			c56.68-5.12,106.45,10.35,150.01,47.16c53.62,45.31,93.27,101.05,124.48,163.32c3.2,6.39,6.16,12.92,8.96,19.5
			c2.78,6.54,4.91,13.34,7.04,21.62c1.72-3.95,2.95-6.69,4.1-9.46c10.52-25.46,17.46-52,23.89-78.7
			c6.62-27.49,13.04-55.04,23.99-81.26c17.06-40.88,37.12-80.05,65.89-114.14c10.32-12.23,21.32-23.88,34.76-32.86
			c12.13-8.1,25.36-12.9,39.99-14.22c16.12-1.45,27.25,5.57,34.82,19.19c6.06,10.9,7.51,22.92,8.42,35.13
			c2.06,27.61-6.32,52.92-16.46,77.91c-13.04,32.11-29.19,62.75-44.15,93.95c-8.06,16.82-15.29,34.04-20.82,51.83
			c-3.08,9.92-4,20.52-5.85,30.83c-4.05,22.57-10.37,44.62-15.03,67.05c-3.18,15.31-5.18,30.79-5.66,46.45
			c-0.09,2.99-0.5,5.97-0.86,8.94c-0.27,2.24-1.55,3.8-3.87,3.83c-2.42,0.03-3.46-1.82-3.84-3.91c-0.32-1.79-0.4-3.64-0.42-5.47
			c-0.02-2.04-0.24-3.8-2.01-5.31c-1.95-1.68-1.76-4.13-1.38-6.53c2.5-15.76,5.37-31.48,7.35-47.31
			c2.91-23.27,6.88-46.41,11.06-69.42c5.24-28.88,16.94-55.95,29.75-82.38c14.37-29.64,29.64-58.86,41.91-89.47
			c5.75-14.36,11.56-28.82,13.69-44.23c2.01-14.56,2.04-29.23-1.24-43.72c-0.26-1.13-0.56-2.26-0.96-3.35
			c-6.85-18.57-14.49-21.03-30.73-17.71c-14.16,2.9-26.41,9.86-37.13,19.53c-27.5,24.83-47.13,55.35-64.15,87.87
			c-21.15,40.41-34.39,83.51-45.17,127.6c-7.08,28.95-16.36,57.28-29.93,83.97c-4.29,8.44-8.96,16.69-13.62,24.93
			c-4.69,8.27-8.12,17.03-11.3,25.97c-3.3,9.27-9.67,16.66-16.73,23.33c-2.61,2.46-2.71,3.58,0.44,5.63
			c13.23,8.62,25.72,18.41,41.02,23.49c19.88,6.6,40.41,9.68,61.14,11.66c16.9,1.61,33.85,2.56,50.83,2.87
			c4.7-1.06,9.55,0.53,14.23-0.85c0.62-0.04,1.24-0.08,1.87-0.11C927.64,573.76,929.76,572.27,930.96,574.99z"/>
		<path class="st4" d="M519.94,948.69c-1.62,0.05-3.25,0.1-4.87,0.15c-14.51-5.69-28.25-13.62-43.66-16.68
			c-19.15-3.8-38.35-2.68-57.46,1.25c-14.63,3.01-29.18,6.57-44.31,6.53c-9.43-0.03-18.36-1.77-26.08-7.07
			c-17.81-12.22-37.71-13.43-58.33-12.5c-16.2,0.73-31.81,5.06-47.82,6.89c-14.73,1.68-29.48,2.42-44.28,2.63
			c-0.61-0.65-0.61-1.31-0.01-1.96c21.4-3.32,42.18-9.36,63.17-14.5c21.12-5.17,42.45-5.91,63.93-2.6
			c8.86,1.36,17.17,4.47,24.45,9.54c10.4,7.23,21.71,8.2,33.83,7.28c15.49-1.18,30.46-5.47,45.83-7.06
			c22.85-2.36,45.57-2.24,67.22,7.23c8.84,3.86,17.79,7.47,26.57,11.44C523.41,941.64,523.83,944.54,519.94,948.69z"/>
		<path class="st4" d="M1184.78,436.91c-15.3,0.86-30.28,4.21-45.58,5.35c-30.69,2.27-60.8-0.4-90.68-7.64
			c-16.88-4.09-34.01-3.87-50.94,0.52c-2.24,0.58-4.46,1.39-6.56,2.37c-5.03,2.34-5.72,4.19-3.6,9.53c-3.9,0.11-7.51-0.3-9.51-3.99
			c-2.07-3.83-1.59-7.78,0.89-11.32c3.32-4.74,8.32-7.13,13.6-8.8c20.61-6.51,41.6-7.62,62.6-2.69c21.69,5.09,43.59,7.62,65.81,7.81
			c18.69,0.16,37.18,2.31,55.57,5.53c1.8,0.31,3.64,0.34,5.47,0.49c1.87,1.19,4.28-0.3,6.13,1.06
			C1187.64,437.29,1185.65,436.01,1184.78,436.91z"/>
		<path class="st4" d="M810,0.96c1.99,0.03,3.99,0.07,5.98,0.1c16.91,2.5,31.78,10.45,46.81,17.83
			c33.95,16.67,69.39,29.32,105.65,39.81c9.28,2.68,18.83,4.02,28.5,4.42c0.29,2.62-2.41,0.69-3,1.97
			c-29.11,0.68-57.25-4.49-84.56-14.37c-22.55-8.15-44.36-17.97-65.54-29.24c-12.84-6.84-26.09-11.86-41.22-11.8
			c-15.7,0.05-29.29,5.02-41.99,13.52c-9.69,6.49-18.71,13.87-27.93,21c-2.75,2.13-5.68,4.07-8.69,5.83
			c-2.37,1.4-4.97,1.98-7.44-0.09c15.72-10.58,28.49-24.77,44.34-35.16c12.56-8.24,26.06-13.06,41.03-13.82
			C804.63,0.95,807.31,0.96,810,0.96z"/>
		<path class="st4" d="M10.88,457.13c9.74,4.17,17.65,10.85,25.39,17.91c8.89,8.1,19.13,12.48,31.66,12.4
			c17.58-0.1,34.77-3.31,52.16-4.8c15.16-1.3,30.24,0.24,45.23,2.48c2.41,0.36,4.73,1.49,4.61,4.36c-0.11,2.55-2.25,3.48-4.54,3.84
			c-1.31,0.21-2.63,0.58-3.94,0.56c-24.72-0.43-49.1,2.87-73.46,6.57c-9.2,1.4-18.56,2-27.9,1.16
			c-16.09-1.45-27.44-10.25-35.64-23.57c-4.44-7.21-8.66-14.53-15.45-19.88C8.93,456.53,9.56,456.19,10.88,457.13z"/>
		<path class="st4" d="M142.47,61.92c20.43,8.01,38.81,20.25,59.12,28.56c18.13,7.42,36.91,9.01,56.26,8.22
			c22.44-0.91,42.91-8.34,63.13-17.11c14.19-6.16,28.5-12,44.11-13.74c24.32-2.72,47.42,1.13,69.22,12.36
			c6.07,3.13,11.95,6.75,19.38,6.22c-2.9,3.08-6.54,3.25-10.07,2.14c-4.43-1.39-8.7-3.29-12.97-5.16
			c-31.41-13.72-62.88-13.7-94.53-0.73c-13.38,5.49-26.52,11.6-40.27,16.15c-20.54,6.8-41.65,8.32-63.09,6.74
			c-24.31-1.79-45.34-12.18-65.47-24.95c-9.1-5.77-18.27-11.43-27.41-17.14C139.76,61.33,141.09,61.59,142.47,61.92z"/>
		<path class="st4" d="M975.8,830.2c-7.64,2.08-14.82,1.79-21.91,2.31c-16.26,1.18-32.51,2.58-48.79,3.34
			c-17.12,0.8-32.44-4.58-46.02-15c-5.95-4.56-12.06-8.92-17.83-13.69c-14.5-11.97-31.5-12.13-48.85-10.61
			c-13.08,1.15-26.1,3.27-39.3,2.45c-2.94-0.18-7.37,0.3-7.44-3.13c-0.07-3.67,4.37-3,7.23-3.09c14.51-0.42,28.64-3.85,43.02-5.32
			c18.97-1.93,36.76-0.07,52.6,11.97c8.06,6.13,16.19,12.24,25.05,17.3c11.98,6.85,25.16,8.07,38.47,9.21
			c20.4,1.74,40.79,3.51,61.28,3.69C973.91,829.65,974.51,829.9,975.8,830.2z"/>
		<path class="st5" d="M142.47,61.92c-1.02,0.25-2.07,0.46-2.59,1.56c-3.71-1.58-7.41-3.17-10.71-5.54
			c0.01-1.87,1.14-1.26,2.12-0.95C134.8,59.15,139.19,59.28,142.47,61.92z"/>
		<path class="st6" d="M933.8,572.79c4.5-0.57,9-1.14,13.5-1.71c-2.16,2.34-4.63,3.15-7.43,2.84
			C938.05,572.49,935.47,575.13,933.8,572.79z"/>
		<path class="st7" d="M993.94,65.09c1-0.66,2-1.31,3-1.97c3.45,0,6.91,0,11.55,0C1003.01,64.86,998.57,65.6,993.94,65.09z"/>
		<path class="st8" d="M933.8,572.79c1.96,0.72,4.31-0.66,6.07,1.13c-2.97,0.37-5.82,1.76-8.92,1.07c-1.44-1.61-3.55-0.14-5.13-1.11
			C928.39,572.77,931.17,573.34,933.8,572.79z"/>
		<path class="st9" d="M1184.78,436.91c0.68-0.37,1.37-0.74,2.31-1.26c-1.68-1.09-3.84-0.23-5.24-1.58
			c3.64-0.62,6.99,0.47,11.4,1.49C1189.91,437.57,1187.34,437.23,1184.78,436.91z"/>
		<path class="st10" d="M193.1,927.92c0,0.65,0.01,1.31,0.01,1.96c-2.72,0.75-5.37,0.15-8.06-0.49
			C187.65,928.27,190.26,927.46,193.1,927.92z"/>
		<path class="st11" d="M923.96,573.99c-4.64,1.96-9.45,1.12-14.23,0.85C914.44,574.07,919.18,573.65,923.96,573.99z"/>
		<path class="st12" d="M895.29,541.79c-0.18,2.81-0.12,4.86-2.17,6.63C892.99,546,892.16,543.8,895.29,541.79z"/>
		<path class="st13" d="M124.24,53.97c1.67,0.68,3.35,1.37,5.02,2.05c-0.43,0.94-1.58,0.48-2.17,1.12
			c-1.61-0.73-3.23-1.45-4.84-2.18C122.11,53.01,123.3,53.74,124.24,53.97z"/>
		<path class="st14" d="M278.24,568.21c-0.57-0.99,0.17-2.45-1.13-3.19c0.45-1.14,0.62-2.47,1.95-3.04c1.88-0.1,1.56,0.95,1.08,2.08
			C279.52,565.44,278.88,566.82,278.24,568.21z"/>
		<path class="st8" d="M10.88,457.13c-0.62,0.34-1.25,0.68-1.87,1.02c-1.35-0.56-2.51-1.37-3.57-2.94
			C7.8,454.88,9.49,455.53,10.88,457.13z"/>
		<path class="st15" d="M124.24,53.97c-0.66,0.33-1.32,0.66-1.98,0.99c-1.42-0.31-2.8-0.7-3.73-2.46
			C120.83,52.01,122.52,53.05,124.24,53.97z"/>
		<path class="st16" d="M280.15,564.06c-0.36-0.69-0.72-1.38-1.08-2.08c0.79-0.66,1.78-2.16,2.61-1.05
			C282.39,561.88,281.11,563.19,280.15,564.06z"/>
		<path class="st17" d="M127.09,57.14c0.4-0.99,1.34-0.94,2.17-1.12c0.68,0.33,1.36,0.65,2.04,0.98c-0.71,0.32-1.42,0.63-2.12,0.95
			C128.48,57.68,127.79,57.41,127.09,57.14z"/>
		<path class="st0" d="M353.93,524.09c-17.62-3.97-34.77-9.01-49.15-20.69c-5.37-4.36-9.87-9.44-12.95-15.65
			c-8.7-17.53-15.15-35.88-17.51-55.31c-3.56-29.23,5.02-55.87,19.23-81c3.34-5.91,7.12-11.58,10.88-17.66
			c3.01,3.26,2.44,6.71,2.19,10.12c-0.91,12.58-3.79,24.93-3.7,37.66c0.06,8.37,1.42,16.21,5.24,23.58
			c7.92,15.26,17.01,29.73,28.76,42.41c8.92,9.63,19.95,15.89,32.02,20.56c0.99,0.49,2.02,0.68,2.94-0.05
			c0.12-0.09-0.49-0.75-0.73-1.16c-23.53-19.38-41.11-43.41-55.01-70.31c-2.09-4.04-3.06-8.34-3.19-12.95
			c-0.28-9.49-0.06-18.96-0.01-28.44c0.04-8.35,1.05-17.09-5.02-24.34c-1.62-1.94,0.72-3.35,1.64-4.68
			c18.05-26.02,40.28-47.86,66.33-65.82c33.02-22.77,69.21-37.72,109.13-42.72c40.56-5.08,80.22-2.86,116.98,17.6
			c23.93,13.32,44.82,30.68,63.75,50.26c44.47,45.99,78.98,98.69,103.76,157.64c5.5,13.08,4.02,27.24,2.06,40.92
			c-0.59,4.08-4.27,7.79-6.74,11.53c-6.62,10.01-14.08,19.4-21.72,28.65c-1.65,1.99-2.91,2.46-5.35,1.11
			c-18.17-10.06-37.86-15.53-58.32-17.91c-11.9-1.38-23.97-0.66-35.96-0.13c-31.45,1.37-61.4,9.08-90.12,21.78
			c-2.43,1.08-4.84,2.21-7.26,3.32c-5.67,2.61-10.68,5.16-17.93,4.27c-10.06-1.23-20.54,0.85-30.82,1.69
			c-30.26,2.47-60.17,0.1-89.9-5.82c-11.72-2.34-23.62-3.76-35.26-6.6c-2.21-1.02-4.76,0.06-6.95-1.07c-1.1-0.39-2.22-0.75-3.33-1.1
			c-2.64-0.87-5.18-2-7.83-2.83c-0.71-0.23-1.33-0.66-2.02-0.91c0.82,0.55,1.72,0.94,2.66,1.23c1.09,0.49,2.48,0.63,2.61,2.24
			C356.41,524.99,355.17,524.55,353.93,524.09z"/>
		<path class="st18" d="M365.22,523.9c2.35,0.58,4.81,0.75,6.95,2.03c-1.26,0.64-2.93-0.55-4,0.91c-0.76,0.92-1.52,0.09-2.29,0.01
			c-0.97-0.44-2.13-0.48-2.88-1.39c-0.23-0.4-0.28-0.82-0.16-1.26C363.55,523.35,364.36,523.45,365.22,523.9z"/>
		<path class="st19" d="M353.93,524.09c0.99-0.45,2.37,0.3,3.08-1.01c1.07-1.2,2.15-0.27,3.24-0.04c1.11,0.41,2.03,1.09,2.83,1.96
			l-0.12,0.17c0.18,1.05-0.25,1.38-1.24,1.05C358.99,525.95,356.35,525.42,353.93,524.09z"/>
		<path class="st20" d="M371.15,466.9c1.58,0.17,2.45,1.29,3.77,2.69c-2.6,0.51-4.33-0.28-5.98-1.48
			C369.71,467.77,370.73,467.88,371.15,466.9z"/>
		<path class="st21" d="M779.28,465.49c1.23,1.4,0.98,2.58,0.54,3.91C778.3,468.18,779.08,466.97,779.28,465.49z"/>
		<path class="st9" d="M361.7,526.23c0.41-0.35,0.83-0.7,1.24-1.05c0.97,0.33,1.94,0.67,2.92,1c0.32,0.92,0.1,1.34-0.93,1
			C363.79,527.07,362.6,527.14,361.7,526.23z"/>
		<path class="st22" d="M364.93,527.18c0.31-0.33,0.62-0.67,0.93-1c0.77,0.22,1.54,0.44,2.32,0.66
			C367.35,529.33,366.09,527.76,364.93,527.18z"/>
		<path class="st4" d="M442.99,431.22c5.91,3.78,11.15,6.87,16.12,10.36c8.7,6.1,17.8,6.85,27.38,2.61
			c13.87-6.15,19.81-20.02,13.74-33.91c-7.77-17.76-25-23.95-42.66-19.25c-5.07,1.35-7.63,5.47-9.86,10.16
			c-2.77-3.25-1.17-6.08,0.09-8.6c4.27-8.56,12.03-11.83,20.9-13.51c26.86-5.08,52.09,19.65,48.7,47.56
			c-2.32,19.04-19.77,34.34-40.48,35.35c-11.53,0.56-20.86-3.12-28.22-11.91C444.36,444.89,443.01,438.79,442.99,431.22z"/>
		<path class="st4" d="M585.44,462.05c2.6-8.55,7.8-13.9,13.44-18.76c8.08-6.96,16.9-12.97,26.12-18.34
			c15.54-9.06,28.87-20.71,40.83-34.1c17.15-19.2,13.34-39.88-0.31-54.74c-3.63-3.95-7.91-7.09-12.27-10.18
			c-1.81-1.28-5.75-1.92-4.14-5.06c1.54-3,4.21,0.07,6.07,0.68c27.55,9.01,43.73,44.89,22.11,73.01
			c-12.1,15.74-26.85,28.72-43.66,39.12c-12.84,7.95-25.18,16.84-39.21,22.79C591.57,457.68,589.08,459.76,585.44,462.05z"/>
		<path class="st4" d="M589.76,343.2c-22.42,0.21-44.54-2.06-66.19-8.13c-2.42-0.68-4.8-1.44-6.7-3.18
			c-2.09-1.92-3.29-4.25-2.56-7.14c0.73-2.86,2.78-4.37,5.59-5.1c2.2-0.57,4.31-0.3,6.4,0.29c24.45,6.91,49.47,8.48,74.71,8.08
			c3.66-0.06,7.34-0.1,10.99,0.1c5.91,0.33,9.41,3.31,9.33,7.67c-0.08,4.14-3.45,7.16-9.1,7.36
			C604.76,343.39,597.25,343.2,589.76,343.2z"/>
		<path class="st4" d="M360.15,341.67c-3.16,0-6.36,0.33-9.47-0.08c-4.23-0.56-7.23-3.08-7.16-7.6c0.07-4.58,3.21-6.78,7.49-7.21
			c7.62-0.75,15.32-0.05,22.93-1.2c20.91-3.16,41.95-5.31,62.98-7.5c7.35-0.77,10.8,0.96,11.64,4.91c0.88,4.11-2.2,7.22-9.18,9.25
			c-9.34,2.71-19.02,3.27-28.62,4.14C393.85,337.91,377.19,341.66,360.15,341.67z"/>
		<path class="st23" d="M427.86,285.07c13.25,3.6,28.67-7.47,30.41-20.75c0.84-6.41,5.02-10.22,9.98-9.35
			c5.12,0.9,7.7,6.27,6.07,12.67c-4.09,16.07-24.52,28.37-38.6,23.24C432.13,289.58,430.68,288.55,427.86,285.07z"/>
		<path class="st23" d="M563.59,287.32c-6.6,5.19-12.71,7.02-19.54,5.05c-17.22-4.97-22.72-23.24-20.42-35.03
			c1-5.1,7.82-7.11,11.91-3.57c3.52,3.05,4.25,6.98,2.68,11.32c-2.41,6.69-0.19,13.05,6.13,16.45
			C549.93,284.52,555.78,286.87,563.59,287.32z"/>
		<path class="st24" d="M360.13,523.94c-1.04-0.29-2.08-0.57-3.13-0.86c-0.94-0.39-1.89-0.78-2.83-1.18
			c-0.7-0.33-1.37-0.75-1.16-1.64c0.13-0.54,0.63-0.43,1.04-0.21c2.55,1.5,5.8,0.88,8.23,2.74
			C361.95,523.89,360.8,523.47,360.13,523.94z"/>
		<path class="st25" d="M354.06,520.05c-1.01,0.68-0.04,1.24,0.12,1.85c-1.89,0.18-2.94-1.2-4.63-2.53
			C351.43,518.95,352.84,518.51,354.06,520.05z"/>
		<path class="st26" d="M360.13,523.94c0.36-1.06,1.38-0.88,2.16-1.16c0.98,0.37,1.96,0.74,2.94,1.12c-0.77,0.26-1.76,0.1-2.16,1.1
			C362.09,524.65,361.11,524.3,360.13,523.94z"/>
	</g>
</g>
</svg>
